<svg xmlns="http://www.w3.org/2000/svg" viewBox="0 0 527.18 171.97"><defs><style>.cls-1{fill:#0b4f6a;}.cls-2{fill:#5bb96d;}</style></defs><title>Asset 2</title><g id="Layer_2"><g id="Layer_1-2"><path class="cls-1" d="M74.2,11.08A37.83,37.83,0,1,0,41.73,75.23v27a5.73,5.73,0,0,0,11.45,0v-27a37.84,37.84,0,0,0,21-64.15M65.88,56.27a26.06,26.06,0,1,1,0-36.86,25.92,25.92,0,0,1,0,36.86"/><path class="cls-1" d="M264.66,58c-.12.11-.25.23-.39.34a4.92,4.92,0,0,1-.41.31c-.14.09-.28.18-.45.27a4,4,0,0,1-.47.22,3.47,3.47,0,0,1-.48.17h0a3.09,3.09,0,0,1-.46.12h0l-.51.08-.51,0-.52,0-.5-.08h0a4.83,4.83,0,0,1-1-.31,4.69,4.69,0,0,1-.46-.21q-.22-.12-.45-.27c-.12-.08-.25-.18-.41-.31a4.33,4.33,0,0,1-.38-.34c-.13-.13-.25-.26-.35-.38s-.2-.27-.3-.42-.19-.3-.27-.45a3.16,3.16,0,0,1-.21-.45,3.81,3.81,0,0,1-.18-.49,4.39,4.39,0,0,1-.13-.52c0-.19-.06-.35-.08-.51a6.51,6.51,0,0,1,0-1,4.59,4.59,0,0,1,.08-.53c0-.16.08-.33.13-.5a3.36,3.36,0,0,1,.17-.47,4.58,4.58,0,0,1,.23-.49,4.93,4.93,0,0,1,.26-.43c.1-.15.2-.29.29-.4l.37-.41a4.27,4.27,0,0,1,.37-.33,4.92,4.92,0,0,1,.41-.31l.45-.27a3.82,3.82,0,0,1,.46-.21l.5-.18.51-.13.51-.08a5.79,5.79,0,0,1,1,0l.51.08.51.13a4.59,4.59,0,0,1,.48.17l.47.22a4,4,0,0,1,.44.27,2.86,2.86,0,0,1,.42.31c.14.11.27.23.39.34l.36.4.29.4q.13.21.27.45c.07.14.15.3.22.47a4.29,4.29,0,0,1,.17.48,5,5,0,0,1,.12.49v0c0,.15,0,.32.07.51a4.35,4.35,0,0,1,0,1c0,.19,0,.36-.07.51v0c0,.16-.07.31-.11.46v0a4.24,4.24,0,0,1-.17.47c-.07.17-.15.33-.22.47s-.18.32-.26.44l-.31.43-.35.38"/><path class="cls-1" d="M269.79,20.63a32.12,32.12,0,0,0-3.59-.72,34.49,34.49,0,0,0-10.54.09,33.75,33.75,0,0,0-3.59.78,34.47,34.47,0,0,0-24.18,24.61,31.51,31.51,0,0,0-.72,3.58,34.56,34.56,0,0,0,.09,10.55,34.42,34.42,0,0,0,24.81,27.61,34.06,34.06,0,0,0,14.71.78c1-.16,2-.37,3-.62a34.44,34.44,0,0,0,24.6-24.18,33.79,33.79,0,0,0,.79-3.59,35.1,35.1,0,0,0-.63-14.13,34.45,34.45,0,0,0-24.76-24.76M278.92,38l.6.69.33.4.19.25A23.55,23.55,0,0,1,284.53,49h-6.47a5.27,5.27,0,1,0,0,10.54h6.34a23.88,23.88,0,0,1-17.62,17.62V70.8a5.28,5.28,0,1,0-10.55,0v4.37h0v2.1A23.84,23.84,0,0,1,238,59.52h5.76a5.28,5.28,0,0,0,0-10.55H237.9a23.87,23.87,0,0,1,17.75-18.21v6.34a5.28,5.28,0,1,0,10.55,0V32.74h0v-2.1a23.68,23.68,0,0,1,9.65,4.49l.21.17.42.35c.24.19.47.39.69.59s.61.56.9.86.58.59.85.89"/><path class="cls-2" d="M166.67,48.23h-4.9V43.34a5.73,5.73,0,1,0-11.45,0v4.89h-4.89a5.65,5.65,0,0,0-4.05,1.67,5.73,5.73,0,0,0,4,9.78h4.9v4.89A5.65,5.65,0,0,0,152,68.62a5.73,5.73,0,0,0,9.78-4v-4.9h4.9a5.73,5.73,0,0,0,0-11.45"/><path class="cls-2" d="M377,48.23h-4.9V43.34a5.73,5.73,0,1,0-11.45,0v4.89h-4.89a5.65,5.65,0,0,0-4,1.67,5.73,5.73,0,0,0,4,9.78h4.9v4.89a5.65,5.65,0,0,0,1.67,4.05,5.73,5.73,0,0,0,9.78-4v-4.9H377a5.73,5.73,0,0,0,0-11.45"/><path class="cls-1" d="M0,162.91l3.57-3.62a5.18,5.18,0,0,0,3.65,1.64c.93,0,1.4-.3,1.4-.88,0-.35-.28-.67-.85-1a19.6,19.6,0,0,0-2-.86,18.93,18.93,0,0,1-2.42-1.08,6,6,0,0,1-1-9.53A7,7,0,0,1,7.11,146a8.29,8.29,0,0,1,6.66,3.18l-4,3.17a3.07,3.07,0,0,0-2.48-1.14,1.58,1.58,0,0,0-.89.24A.7.7,0,0,0,6,152c0,.3.28.58.84.83s1.25.53,2.07.81a17.06,17.06,0,0,1,2.43,1.06,5.58,5.58,0,0,1,2.06,1.91,5.48,5.48,0,0,1,.84,3.06,6.2,6.2,0,0,1-1.9,4.68,7.17,7.17,0,0,1-5.15,1.82A8.77,8.77,0,0,1,0,162.91Z"/><path class="cls-1" d="M18.58,153.1a7.27,7.27,0,0,1,5.32-2.19,7.53,7.53,0,0,1,7.53,7.5,10.62,10.62,0,0,1-.13,1.64H22.23a2.47,2.47,0,0,0,2.41,1.67,4.06,4.06,0,0,0,2.46-.87l3.67,2.35a7.08,7.08,0,0,1-2.86,2,9.6,9.6,0,0,1-3.62.74,7.77,7.77,0,0,1-5.69-2.18,7.22,7.22,0,0,1-2.21-5.36A7.3,7.3,0,0,1,18.58,153.1Zm3.52,3.52h3.83A1.89,1.89,0,0,0,24,155,1.93,1.93,0,0,0,22.1,156.62Z"/><path class="cls-1" d="M35.21,153a5.91,5.91,0,0,1,4.63-2.19,4.33,4.33,0,0,1,3.51,1.72l.35-1.43h4.89v14.54H43.7l-.37-1.51a4.24,4.24,0,0,1-3.49,1.72,5.92,5.92,0,0,1-4.64-2.21,8.31,8.31,0,0,1,0-10.64Zm3.57,5.34a2.12,2.12,0,0,0,.63,1.56,2.07,2.07,0,0,0,1.54.64,2.18,2.18,0,0,0,1.57-.64,2.1,2.1,0,0,0,.65-1.56A2.22,2.22,0,0,0,41,156.14a2.06,2.06,0,0,0-1.55.65A2.19,2.19,0,0,0,38.78,158.36Z"/><path class="cls-1" d="M51.49,165.66V151.12h4.89l.43,1.64A4.47,4.47,0,0,1,60.67,151a10.82,10.82,0,0,1,1.64.13L61.2,156.3a1.83,1.83,0,0,0-.37,0,6.45,6.45,0,0,0-1,.07,3.75,3.75,0,0,0-1,.32,2.63,2.63,0,0,0-1,.67,3.24,3.24,0,0,0-.65,1.22,5.77,5.77,0,0,0-.27,1.87v5.24Z"/><path class="cls-1" d="M66.22,153.1a7.52,7.52,0,0,1,8.8-1.33,7.64,7.64,0,0,1,2.67,2.31l-4.47,3a2.42,2.42,0,0,0-1.69-.64,2,2,0,0,0-2,2,2,2,0,0,0,.57,1.46,1.92,1.92,0,0,0,1.44.58,2,2,0,0,0,1.77-.85l4.47,3a7.55,7.55,0,0,1-2.68,2.43,7.33,7.33,0,0,1-3.56.9,7.53,7.53,0,0,1-5.31-12.85Z"/><path class="cls-1" d="M85.44,145v7.35a4,4,0,0,1,3.11-1.59q5.43,0,5.42,7.4v7.46H88.55V158.2a2.23,2.23,0,0,0-.46-1.54,1.41,1.41,0,0,0-2.19,0,2.23,2.23,0,0,0-.46,1.54v7.46H80V145Z"/><path class="cls-1" d="M192.34,146.36h15.17v5.55h-4.68v13.75H197V151.91h-4.68Z"/><path class="cls-1" d="M211,153a5.91,5.91,0,0,1,4.63-2.19,4.33,4.33,0,0,1,3.51,1.72l.35-1.43h4.89v14.54h-4.89l-.37-1.51a4.24,4.24,0,0,1-3.49,1.72,5.94,5.94,0,0,1-4.64-2.21A8.31,8.31,0,0,1,211,153Zm3.57,5.34a2.12,2.12,0,0,0,.63,1.56,2.07,2.07,0,0,0,1.54.64,2.18,2.18,0,0,0,1.57-.64,2.1,2.1,0,0,0,.65-1.56,2.22,2.22,0,0,0-2.22-2.22,2.06,2.06,0,0,0-1.55.65A2.19,2.19,0,0,0,214.57,158.36Z"/><path class="cls-1" d="M227.28,165.66V151.12h4.89l.43,1.64a4.47,4.47,0,0,1,3.86-1.77,10.82,10.82,0,0,1,1.64.13L237,156.3a1.83,1.83,0,0,0-.37,0,6.45,6.45,0,0,0-1,.07,3.75,3.75,0,0,0-1,.32,2.63,2.63,0,0,0-.95.67,3.24,3.24,0,0,0-.65,1.22,5.77,5.77,0,0,0-.27,1.87v5.24Z"/><path class="cls-1" d="M241.74,153a5.91,5.91,0,0,1,4.63-2.19,4.36,4.36,0,0,1,3.52,1.72l.34-1.43h4.89v12.26a8.62,8.62,0,0,1-2.23,6.35,8.31,8.31,0,0,1-6.18,2.24,8.61,8.61,0,0,1-3.58-.79,7.11,7.11,0,0,1-2.81-2.19l3.51-2.72a4,4,0,0,0,2.72.95,3.46,3.46,0,0,0,2.26-.73,2.13,2.13,0,0,0,.89-1.68v-.47a4.27,4.27,0,0,1-3.33,1.53,5.94,5.94,0,0,1-4.64-2.21,7.8,7.8,0,0,1-1.92-5.3A7.9,7.9,0,0,1,241.74,153Zm3.57,5.34a2.09,2.09,0,0,0,.64,1.56,2,2,0,0,0,1.53.64,2.17,2.17,0,0,0,1.57-.64,2.1,2.1,0,0,0,.65-1.56,2.22,2.22,0,0,0-2.22-2.22,2.08,2.08,0,0,0-1.55.65A2.19,2.19,0,0,0,245.31,158.36Z"/><path class="cls-1" d="M259.69,153.1a7.54,7.54,0,0,1,12.85,5.31,10.62,10.62,0,0,1-.13,1.64h-9.07a2.47,2.47,0,0,0,2.41,1.67,4,4,0,0,0,2.45-.87l3.68,2.35a7.08,7.08,0,0,1-2.86,2,9.6,9.6,0,0,1-3.62.74,7.77,7.77,0,0,1-5.69-2.18,7.22,7.22,0,0,1-2.21-5.36A7.3,7.3,0,0,1,259.69,153.1Zm3.52,3.52H267a1.89,1.89,0,0,0-1.9-1.62A1.93,1.93,0,0,0,263.21,156.62Z"/><path class="cls-1" d="M276.21,151.12l.82-4.76h4.37v4.76h3.09v4.76H281.4v2.67a2.4,2.4,0,0,0,.5,1.71,2,2,0,0,0,1.53.53,3.11,3.11,0,0,0,.87-.13l1.35,4.78a8.47,8.47,0,0,1-3.12.53q-6.55,0-6.55-7.42v-2.67h-1.85v-4.76Z"/><path class="cls-1" d="M287.87,147.55a2.78,2.78,0,0,1,.85-2.06,2.86,2.86,0,0,1,4.07,0,2.81,2.81,0,0,1,.84,2.06,2.89,2.89,0,0,1-2.88,2.88,2.9,2.9,0,0,1-2.88-2.88Zm.19,18.11V151.12h5.42v14.54Z"/><path class="cls-1" d="M296.36,151.12h4.89l.37,1.45a4,4,0,0,1,3.28-1.77q5.42,0,5.41,7.4v7.46H304.9V158.2a2.23,2.23,0,0,0-.47-1.54,1.41,1.41,0,0,0-2.19,0,2.23,2.23,0,0,0-.46,1.54v7.46h-5.42Z"/><path class="cls-1" d="M314.49,153a5.91,5.91,0,0,1,4.63-2.19,4.33,4.33,0,0,1,3.51,1.72l.35-1.43h4.89v12.26a8.63,8.63,0,0,1-2.24,6.35,8.29,8.29,0,0,1-6.17,2.24,8.58,8.58,0,0,1-3.58-.79,7.21,7.21,0,0,1-2.82-2.19l3.52-2.72a4,4,0,0,0,2.72.95,3.46,3.46,0,0,0,2.26-.73,2.16,2.16,0,0,0,.89-1.68v-.47a4.27,4.27,0,0,1-3.33,1.53,5.92,5.92,0,0,1-4.64-2.21,8.31,8.31,0,0,1,0-10.64Zm3.57,5.34a2.12,2.12,0,0,0,.63,1.56,2.07,2.07,0,0,0,1.54.64,2.18,2.18,0,0,0,1.57-.64,2.1,2.1,0,0,0,.65-1.56,2.22,2.22,0,0,0-2.22-2.22,2.06,2.06,0,0,0-1.55.65A2.19,2.19,0,0,0,318.06,158.36Z"/><path class="cls-1" d="M446.43,57.33a2.28,2.28,0,0,0,1.95,1.16q1.77,0,1.77-2.4V44.59H456v11.5A8.15,8.15,0,0,1,453.88,62a7.28,7.28,0,0,1-5.47,2.14,7.48,7.48,0,0,1-3.67-.91,7,7,0,0,1-2.67-2.57Z"/><path class="cls-1" d="M458.35,56.64A7.49,7.49,0,1,1,460.54,62,7.26,7.26,0,0,1,458.35,56.64Zm5.5,0a1.94,1.94,0,0,0,.58,1.45,1.88,1.88,0,0,0,1.43.59,1.94,1.94,0,0,0,1.45-.6,2,2,0,0,0,.58-1.44,2,2,0,0,0-.58-1.43,2,2,0,0,0-1.45-.58,1.93,1.93,0,0,0-1.44.58A2,2,0,0,0,463.85,56.64Z"/><path class="cls-1" d="M481.19,43.26v7.3a4.25,4.25,0,0,1,3.33-1.51,6,6,0,0,1,4.64,2.21,8.32,8.32,0,0,1,0,10.63,6,6,0,0,1-4.64,2.21A4.25,4.25,0,0,1,481,62.38l-.37,1.5h-4.89V43.26Zm.66,14.89a2.12,2.12,0,0,0,1.56.63,2.1,2.1,0,0,0,1.55-.63,2.18,2.18,0,0,0,.62-1.56A2.23,2.23,0,0,0,485,55a2.07,2.07,0,0,0-1.55-.64,2.2,2.2,0,0,0-2.22,2.22A2.1,2.1,0,0,0,481.85,58.15Z"/><path class="cls-1" d="M410.74,99.09a10.14,10.14,0,1,1-3,7.14A9.77,9.77,0,0,1,410.74,99.09ZM415,109.17a4,4,0,0,0,2.94,1.24,3.94,3.94,0,0,0,2.9-1.23,4,4,0,0,0,1.22-3,4.15,4.15,0,0,0-4.12-4.12,4,4,0,0,0-2.93,1.21,4,4,0,0,0-1.23,2.91A4,4,0,0,0,415,109.17Z"/><path class="cls-1" d="M429.83,101.34h1.85v-.1a6.08,6.08,0,0,1,1.89-4.88,6.91,6.91,0,0,1,4.66-1.63,8.65,8.65,0,0,1,3.12.53L440,100.05a7,7,0,0,0-1.16-.14,2,2,0,0,0-1.31.37,1.21,1.21,0,0,0-.43,1v.1H440v4.76h-2.9v9.78l-5.42,0V106.1h-1.85Z"/><path class="cls-1" d="M442.38,101.34h1.85v-.1a6.08,6.08,0,0,1,1.89-4.88,6.94,6.94,0,0,1,4.67-1.63,8.72,8.72,0,0,1,3.12.53l-1.35,4.79a7,7,0,0,0-1.16-.14,2,2,0,0,0-1.31.37,1.21,1.21,0,0,0-.44,1v.1h2.91v4.76h-2.91v9.78l-5.42,0V106.1h-1.85Z"/><path class="cls-1" d="M457.42,103.32a7.54,7.54,0,0,1,12.85,5.32,10.82,10.82,0,0,1-.13,1.64h-9.07a2.46,2.46,0,0,0,2.41,1.66,4.06,4.06,0,0,0,2.46-.87l3.67,2.35a6.89,6.89,0,0,1-2.86,2,9.6,9.6,0,0,1-3.62.74,7.77,7.77,0,0,1-5.69-2.18,7.24,7.24,0,0,1-2.21-5.35A7.32,7.32,0,0,1,457.42,103.32Zm3.52,3.52h3.83a1.89,1.89,0,0,0-1.9-1.61A1.93,1.93,0,0,0,460.94,106.84Z"/><path class="cls-1" d="M472.65,115.88V101.34h4.89L478,103a4.48,4.48,0,0,1,3.86-1.77,10.72,10.72,0,0,1,1.64.13l-1.11,5.18-.37,0a8,8,0,0,0-1,.06,4.26,4.26,0,0,0-1,.32,2.86,2.86,0,0,0-.95.67,3.65,3.65,0,0,0-.65,1.22,6.14,6.14,0,0,0-.26,1.88v5.23Z"/><path class="cls-1" d="M485.55,97.77a2.88,2.88,0,0,1,4.92-2.06,2.82,2.82,0,0,1,.84,2.06,2.88,2.88,0,0,1-4.91,2A2.76,2.76,0,0,1,485.55,97.77Zm.19,18.11V101.34h5.41v14.54Z"/><path class="cls-1" d="M494,101.34h4.89l.37,1.46a4,4,0,0,1,3.27-1.78q5.43,0,5.42,7.41v7.45h-5.42v-7.45a2.24,2.24,0,0,0-.46-1.55,1.41,1.41,0,0,0-2.19,0,2.24,2.24,0,0,0-.46,1.55v7.45H494Z"/><path class="cls-1" d="M512.17,103.24a5.91,5.91,0,0,1,4.62-2.19,4.33,4.33,0,0,1,3.52,1.72l.35-1.43h4.88v12.27a8.6,8.6,0,0,1-2.23,6.34,8.31,8.31,0,0,1-6.17,2.25,8.59,8.59,0,0,1-3.58-.8,7,7,0,0,1-2.82-2.19l3.52-2.72a4,4,0,0,0,2.72,1,3.41,3.41,0,0,0,2.26-.73,2.13,2.13,0,0,0,.89-1.68v-.47a4.27,4.27,0,0,1-3.34,1.53,5.89,5.89,0,0,1-4.63-2.21,7.79,7.79,0,0,1-1.92-5.3A7.88,7.88,0,0,1,512.17,103.24Zm3.57,5.34a2.12,2.12,0,0,0,.63,1.56,2,2,0,0,0,1.54.64,2.14,2.14,0,0,0,1.57-.64,2.1,2.1,0,0,0,.65-1.56,2.22,2.22,0,0,0-2.22-2.22,2.06,2.06,0,0,0-1.55.65A2.21,2.21,0,0,0,515.74,108.58Z"/><path class="cls-1" d="M414.39,148.58a7.41,7.41,0,0,1,5.38,1.9,6.37,6.37,0,0,1,2,4.76,6.44,6.44,0,0,1-2,4.8,7.38,7.38,0,0,1-5.38,1.92h-1.72v5.92h-5.82v-19.3Zm-.13,7.69c1,0,1.5-.34,1.5-1s-.5-1-1.5-1h-1.59v2Z"/><path class="cls-1" d="M429.27,167.88h-5.42V147.26h5.42Z"/><path class="cls-1" d="M433.58,155.24a5.91,5.91,0,0,1,4.63-2.19,4.33,4.33,0,0,1,3.51,1.72l.35-1.43H447v14.54h-4.89l-.37-1.51a4.24,4.24,0,0,1-3.49,1.72,5.92,5.92,0,0,1-4.64-2.21,8.31,8.31,0,0,1,0-10.64Zm3.57,5.34a2.12,2.12,0,0,0,.63,1.56,2.07,2.07,0,0,0,1.54.64,2.18,2.18,0,0,0,1.57-.64,2.1,2.1,0,0,0,.65-1.56,2.22,2.22,0,0,0-2.22-2.22,2.06,2.06,0,0,0-1.55.65A2.19,2.19,0,0,0,437.15,160.58Z"/><path class="cls-1" d="M451.16,153.34l.82-4.76h4.36v4.76h3.09v4.76h-3.09v2.67a2.44,2.44,0,0,0,.5,1.71,2,2,0,0,0,1.54.53,3.22,3.22,0,0,0,.87-.13l1.35,4.79a8.73,8.73,0,0,1-3.12.52q-6.56,0-6.56-7.42V158.1h-1.85v-4.76Z"/><path class="cls-1" d="M462.18,153.34H464v-.11a6.07,6.07,0,0,1,1.89-4.87,6.89,6.89,0,0,1,4.67-1.63,8.72,8.72,0,0,1,3.12.53L472.36,152a8,8,0,0,0-1.16-.13,2,2,0,0,0-1.31.37,1.21,1.21,0,0,0-.44.95v.11h2.91v4.76h-2.91v9.78l-5.42,0V158.1h-1.85Z"/><path class="cls-1" d="M475,160.63a7.53,7.53,0,1,1,2.2,5.33A7.24,7.24,0,0,1,475,160.63Zm5.5,0a2,2,0,0,0,.58,1.46,1.88,1.88,0,0,0,1.43.58,1.92,1.92,0,0,0,1.45-.6,2,2,0,0,0,.58-1.44,1.92,1.92,0,0,0-.58-1.42,1.94,1.94,0,0,0-1.45-.58,1.92,1.92,0,0,0-1.44.58A2,2,0,0,0,480.5,160.63Z"/><path class="cls-1" d="M492.42,167.88V153.34h4.89l.43,1.64a4.47,4.47,0,0,1,3.86-1.77,10.59,10.59,0,0,1,1.63.13l-1.11,5.18a1.7,1.7,0,0,0-.37,0,7.63,7.63,0,0,0-1,.07,3.65,3.65,0,0,0-1,.32,2.76,2.76,0,0,0-1,.67,3.39,3.39,0,0,0-.64,1.22,5.81,5.81,0,0,0-.27,1.87v5.24Z"/><path class="cls-1" d="M505.48,167.88V153.34h4.89l.37,1.48a4.06,4.06,0,0,1,3.41-1.8,4.41,4.41,0,0,1,3.83,1.8,4.78,4.78,0,0,1,1.58-1.31,4,4,0,0,1,1.91-.49q5.71,0,5.71,7.4v7.46h-5.42v-7.46a2.46,2.46,0,0,0-.4-1.54,1.19,1.19,0,0,0-.94-.52,1.23,1.23,0,0,0-1,.5,2.49,2.49,0,0,0-.41,1.56v7.46h-5.42v-7.46a2.4,2.4,0,0,0-.41-1.54,1.16,1.16,0,0,0-.93-.52,1.23,1.23,0,0,0-1,.5,2.49,2.49,0,0,0-.41,1.56v7.46Z"/></g></g></svg>