<svg xmlns="http://www.w3.org/2000/svg" viewBox="0 0 950.41 953.2"><defs><style>.cls-1{fill:#5bb96d;}</style></defs><g id="Layer_2"><g id="Layer_1-2"><path class="cls-1" d="M232.09,926.72a20.57,20.57,0,0,0,9.06,2.36c8.56,0,12.21-6.3,12.21-16.73V842h29.53v73.83c0,25.11-11,37.41-33.27,37.41A61,61,0,0,1,231,950Z"/><path class="cls-1" d="M310.36,937c3,5.22,1.77,11.22-2.66,13.39s-10.33-.3-13.29-5.61-1.67-11.23,2.76-13.39S307.51,931.64,310.36,937Z"/><path class="cls-1" d="M331.21,897.58c0-39.92,24.32-55.62,47.77-55.62s47.77,15.7,47.77,55.62S402.43,953.2,379,953.2,331.21,937.5,331.21,897.58Zm47.58,35c12.21,0,18-13.76,18-35,0-20.93-5.81-35.08-18-35.08s-18.12,14.15-18.12,35.08c0,21.22,5.81,35,18,35Z"/><path class="cls-1" d="M451.74,937c3,5.22,1.78,11.22-2.65,13.39s-10.34-.3-13.29-5.61-1.68-11.23,2.75-13.39S448.89,931.64,451.74,937Z"/><path class="cls-1" d="M475.08,953V842H511.4c22.75,0,40.07,8.66,40.07,36.23,0,22-14.08,34.94-34.65,34.94h-12.3V953Zm33.37-60.78c7.88,0,13.59-5.52,13.59-14.28,0-10.24-5.42-14.86-14.38-14.86h-4.33v29.14Z"/><path class="cls-1" d="M546.69,807.19a402.15,402.15,0,0,1-203.47-54.94l90.84-90.84a282.7,282.7,0,0,0,225.28,0l90.82,90.82A402.1,402.1,0,0,1,546.69,807.19ZM804.52,516.28a284.69,284.69,0,0,0,0-225.33l90.83-90.83a403.64,403.64,0,0,1,0,407ZM198.06,607.09a403.65,403.65,0,0,1,0-407l90.82,90.84a284.65,284.65,0,0,0,0,225.35Zm461.31-461.3a282.68,282.68,0,0,0-225.32,0L343.22,54.92a404.37,404.37,0,0,1,407,0Z"/><path class="cls-1" d="M687.16,324.29A61.11,61.11,0,0,1,643.94,220l141.7-141.7a408.53,408.53,0,0,1,86.42,86.42L766.17,270.57v0l-35.8,35.8A60.72,60.72,0,0,1,687.16,324.29Z"/><path class="cls-1" d="M406.32,324.29a60.76,60.76,0,0,1-43.22-17.9L221.39,164.66a407.55,407.55,0,0,1,86.42-86.41L413.68,184.13h0L449.53,220a61.11,61.11,0,0,1-43.21,104.32Z"/><path class="cls-1" d="M61.1,950.32A61.1,61.1,0,0,1,17.89,846l345.18-345.2a61.12,61.12,0,0,1,86.43,86.43L104.32,932.44A60.71,60.71,0,0,1,61.1,950.32Z"/><path class="cls-1" d="M643.89,587.25a61.12,61.12,0,0,1,86.43-86.43L872,642.54A408.26,408.26,0,0,1,785.6,729Z"/><path class="cls-1" d="M546.74,464.73A61.11,61.11,0,0,1,529,462c-1.94-.59-3.86-1.27-5.69-2s-3.66-1.66-5.27-2.53l-.34-.17a43.39,43.39,0,0,1-4.71-2.82l-.25-.16a64.31,64.31,0,0,1-9.21-7.5c-1.29-1.3-2.64-2.8-4-4.46a58.76,58.76,0,0,1-3.5-4.74l-.17-.25a45.92,45.92,0,0,1-2.89-4.85c-1-1.8-1.85-3.68-2.73-5.73-.71-1.73-1.4-3.66-1.95-5.47s-1.08-3.91-1.49-5.88c-.33-1.64-.6-3.51-.84-5.88-.21-2.09-.32-4.11-.32-6a55.06,55.06,0,0,1,1.2-11.82,56.31,56.31,0,0,1,1.46-5.92c.49-1.54,1.19-3.61,2-5.43a58.41,58.41,0,0,1,2.57-5.54c.93-1.75,2-3.5,3.15-5.28s2.42-3.41,3.53-4.78a64.56,64.56,0,0,1,8.43-8.43c1.33-1.08,3-2.28,5-3.66,1.52-1,3.31-2.07,5.08-3s3.48-1.73,5.27-2.46c2.12-.9,4.27-1.62,5.94-2.16,1.42-.43,3.36-.9,5.68-1.38a50.91,50.91,0,0,1,5.65-.87c2-.19,4-.3,6.39-.33,1.68,0,3.69.11,5.78.32a55.57,55.57,0,0,1,5.84.88c2.32.47,4.25.95,5.92,1.46a52.72,52.72,0,0,1,5.45,2,61.21,61.21,0,0,1,5.59,2.6c1.68.91,3.48,2,5.26,3.15,1.47,1,3.07,2.15,4.76,3.52a57.86,57.86,0,0,1,8.39,8.39,55.41,55.41,0,0,1,3.54,4.79c1.18,1.8,2.23,3.56,3.12,5.22a55.63,55.63,0,0,1,2.53,5.37,53.19,53.19,0,0,1,2,5.66,57,57,0,0,1,1.43,5.76,60.7,60.7,0,0,1,.95,6.05c.21,2.09.32,4.1.32,6s-.14,3.91-.34,6.21c-.2,1.86-.5,3.84-.86,5.62-.41,2-.91,4-1.49,5.88s-1.23,3.71-2.06,5.74a56,56,0,0,1-2.53,5.3,47.5,47.5,0,0,1-3,5l-.18.26a62.25,62.25,0,0,1-7.49,9.2,57.21,57.21,0,0,1-4.43,4,58.45,58.45,0,0,1-4.77,3.53l-.25.17a44,44,0,0,1-4.72,2.81l-.33.17A51.35,51.35,0,0,1,570.2,460c-2,.82-4,1.52-5.75,2.06a57.24,57.24,0,0,1-5.72,1.45c-1.82.38-3.75.68-6.05.95S548.47,464.73,546.74,464.73Z"/></g></g></svg>